<?xml version="1.0" encoding="UTF-8"?>
<svg version="1.1" xmlns="http://www.w3.org/2000/svg" width="372" height="313">
<path d="M0 0 C2.23341198 0.00315111 4.46548162 -0.02037131 6.69873047 -0.0456543 C20.5288695 -0.10737946 33.83540922 1.9318271 47.06201172 6.06567383 C48.30942139 6.44973389 48.30942139 6.44973389 49.58203125 6.84155273 C87.98506064 19.02098798 120.66907342 45.97089753 139.99951172 81.31567383 C142.85162754 86.89750697 145.46075763 92.58574841 147.99951172 98.31567383 C154.82485691 98.66602425 160.29559709 98.12400753 166.76123047 95.91723633 C169.73302716 95.11853355 172.07013292 95.46769576 174.99951172 96.31567383 C175.89627836 104.0876514 173.40112923 109.92208343 168.99951172 116.31567383 C167.44704011 117.7585592 165.82407475 119.078407 164.18115234 120.41674805 C159.05576566 124.577422 159.05576566 124.577422 156.65380859 130.50415039 C156.69197057 135.67509767 157.67301397 140.71627955 158.59667969 145.7902832 C162.71595581 171.6143997 155.44157402 205.69353723 141.81982422 227.91723633 C140.04961772 231.2221283 139.27191595 232.68386105 139.99951172 236.31567383 C141.43397715 238.34543163 141.43397715 238.34543163 143.37451172 240.12817383 C147.1282043 244.17881166 148.38754171 246.80794372 148.99951172 252.31567383 C147.88689646 258.8513159 144.87211938 262.21399754 140.37451172 266.75317383 C139.43260986 267.73169312 139.43260986 267.73169312 138.47167969 268.72998047 C136.66043172 270.60496531 134.83349587 272.46295431 132.99951172 274.31567383 C132.10748047 275.22317383 131.21544922 276.13067383 130.29638672 277.06567383 C128.54427236 278.83039332 126.78263742 280.58238704 124.99951172 282.31567383 C124.39623047 281.82454102 123.79294922 281.3334082 123.17138672 280.82739258 C120.5651503 279.01333953 119.10654801 279.05675414 115.99951172 279.31567383 C116.55680084 282.65940858 117.3512506 285.34880382 118.99951172 288.31567383 C114.42827777 290.91582525 110.15078418 291.25297303 104.99951172 290.31567383 C102.69473466 288.90564558 100.83639455 287.39607585 98.88623047 285.53051758 C97.04124444 284.0871174 97.04124444 284.0871174 94.63232422 284.40942383 C91.4577951 285.50214008 88.9956726 287.03577882 86.18701172 288.87817383 C51.65250085 310.73451923 9.26952565 318.67933704 -30.84130859 309.99951172 C-34.25378677 309.19169056 -37.63031096 308.28391094 -41.00048828 307.31567383 C-42.22638672 306.96762695 -43.45228516 306.61958008 -44.71533203 306.26098633 C-61.2253793 301.15115313 -75.94057071 293.25546903 -90.00048828 283.31567383 C-93.92975383 280.2479326 -93.92975383 280.2479326 -98.56298828 279.31567383 C-101.51730332 280.52770051 -103.56695407 282.26638186 -106.00048828 284.31567383 C-108.68580389 285.21077903 -110.52850091 285.53680032 -113.31298828 285.62817383 C-114.05162109 285.66555664 -114.79025391 285.70293945 -115.55126953 285.74145508 C-121.98180572 284.62354687 -125.99976873 279.39745275 -129.93798828 274.62817383 C-130.45651367 274.01184082 -130.97503906 273.39550781 -131.50927734 272.76049805 C-135.45993175 268.03967551 -139.30257348 263.23754634 -143.00048828 258.31567383 C-142.15486328 257.59379883 -141.30923828 256.87192383 -140.43798828 256.12817383 C-137.65154673 253.5795792 -137.65154673 253.5795792 -138.18798828 250.50317383 C-138.45611328 249.78129883 -138.72423828 249.05942383 -139.00048828 248.31567383 C-142.34422304 248.87296295 -145.03361828 249.66741271 -148.00048828 251.31567383 C-149.85651072 247.60362896 -149.44924429 243.36694333 -149.00048828 239.31567383 C-147.17289115 235.66047956 -145.50603052 233.7154049 -142.31298828 231.19067383 C-139.98388071 229.56389859 -139.98388071 229.56389859 -139.16455078 227.65942383 C-138.91027769 224.02695111 -140.57710022 221.16717363 -142.06298828 217.94067383 C-151.19289397 196.97621717 -154.40779886 176.01192446 -154.00048828 153.31567383 C-153.67048828 153.31567383 -153.34048828 153.31567383 -153.00048828 153.31567383 C-152.76265625 154.8393457 -152.76265625 154.8393457 -152.52001953 156.39379883 C-150.42338127 169.06169646 -147.18329127 183.66276025 -136.72314453 192.16723633 C-129.50411481 197.10472505 -123.71567781 198.08721804 -115.00048828 197.31567383 C-101.01347964 193.50301571 -91.97616308 181.66219941 -84.91455078 169.78833008 C-70.24067679 143.16573012 -65.54026549 111.01392955 -73.75048828 81.62817383 C-77.10684531 71.39868863 -82.28988327 62.4437224 -92.04345703 57.22192383 C-99.68864467 54.02780288 -105.79226379 55.24732506 -113.33251953 58.15942383 C-116.74561927 59.63860029 -119.84379027 61.35150617 -123.00048828 63.31567383 C-121.46435276 59.75052507 -119.31664308 57.27697027 -116.68798828 54.44067383 C-114.18928537 51.72313547 -111.7212118 49.02911878 -109.43798828 46.12817383 C-106.24944044 42.44908017 -102.75434635 39.40600215 -99.00048828 36.31567383 C-98.12005859 35.57446289 -97.23962891 34.83325195 -96.33251953 34.06958008 C-76.61648333 18.12841238 -52.93928007 7.03314019 -28.00048828 2.31567383 C-27.09202148 2.13979736 -26.18355469 1.9639209 -25.24755859 1.78271484 C-16.79719888 0.30396765 -8.55143449 -0.02509115 0 0 Z " fill="#FFFFFF" transform="translate(197.00048828125,-0.315673828125)"/>
<path d="M0 0 C4.6650117 2.66169014 7.57400073 6.38137411 9.625 11.3125 C10.38249781 18.28738247 9.99498025 24.13420288 6.625 30.3125 C7.615 30.6425 8.605 30.9725 9.625 31.3125 C10.00269531 30.44109375 10.38039062 29.5696875 10.76953125 28.671875 C16.501696 16.26784635 24.89359842 4.27714509 38 -1.0625 C44.61907345 -2.20371956 49.57442433 -1.66123135 55.375 1.875 C64.45204359 8.55254685 67.74518394 19.55610525 69.625 30.3125 C71.28454479 56.39752678 66.809811 80.78145812 49.6875 101.1875 C44.97775465 106.30041421 39.30797894 110.85762466 32.171875 111.55078125 C24.54870291 111.75307213 20.49449103 110.72133734 14.8203125 105.72265625 C6.40668476 97.18264354 4.56689523 86.85863003 3.3125 75.4375 C2.5373057 67.13663151 2.5373057 67.13663151 -2.375 60.6875 C-3.68994815 59.86565741 -5.0223281 59.07065078 -6.375 58.3125 C-7.40442546 57.34281798 -8.41477048 56.35074817 -9.375 55.3125 C-10.035 56.240625 -10.695 57.16875 -11.375 58.125 C-15.27277106 62.7825061 -19.90648548 63.94679415 -25.75 64.8125 C-31.63622196 64.00060732 -36.8893378 61.86610741 -41.08984375 57.55078125 C-44.5565748 52.59687282 -45.84051559 47.32696144 -45.375 41.3125 C-43.74392903 34.96944623 -40.87514627 30.80297744 -35.375 27.3125 C-32.69909606 26.39477121 -30.16822601 25.84224976 -27.375 25.3125 C-27.705 24.6525 -28.035 23.9925 -28.375 23.3125 C-29.12117236 16.38375668 -29.08076721 10.68067906 -24.875 4.93359375 C-18.34420893 -2.12442264 -8.72494562 -4.05963699 0 0 Z M20.7890625 25.6484375 C19.3214745 27.8325943 17.93669819 30.03193382 16.625 32.3125 C17.36105469 32.27769531 18.09710938 32.24289063 18.85546875 32.20703125 C20.31919922 32.16642578 20.31919922 32.16642578 21.8125 32.125 C22.77542969 32.09019531 23.73835938 32.05539063 24.73046875 32.01953125 C28.18330854 32.36900896 29.90663641 33.16666847 32.625 35.3125 C36.55573043 41.98010005 37.667811 49.70968027 36.625 57.3125 C35.1875 60.8125 35.1875 60.8125 33.625 63.3125 C33.295 64.3025 32.965 65.2925 32.625 66.3125 C27.33107581 68.8201483 22.72854366 69.44529278 16.9375 69.375 C16.23560547 69.37048828 15.53371094 69.36597656 14.81054688 69.36132812 C13.08199462 69.34956927 11.35348635 69.33163454 9.625 69.3125 C10.1516682 76.68585476 11.69805095 82.59461874 17.25 87.75 C21.28268067 90.40307939 23.45869116 90.55477345 28.1875 89.92578125 C35.87369203 87.99191563 40.19669415 81.82795636 44.0859375 75.328125 C50.69870136 62.37113592 52.82849876 47.09048308 49.90625 32.796875 C47.64981905 26.13676429 44.50151819 22.23017879 38.625 18.3125 C30.93596381 17.40024147 25.63675957 19.48051655 20.7890625 25.6484375 Z " fill="#FFFFFF" transform="translate(45.375,68.6875)"/>
</svg>
